<svg xmlns="http://www.w3.org/2000/svg" xmlns:xlink="http://www.w3.org/1999/xlink" style="vertical-align:-.505ex" width="2.157ex" height="2.259ex" viewBox="0 -755.5 928.8 972.7"><defs><path id="a" stroke-width="1" d="M40 437q-19 0-19 8 0 5 16 56t34 101l17 49q5 18 13 26h558q32 0 38-1t7-9q0-6-17-114t-19-109q0-7-19-7h-12q-3 0-6 5l-2 3q0 6 6 45t6 61q0 35-13 53t-55 25q-5 1-58 2-46 0-58-1t-18-8q-1-1-71-279T298 60q0-12 88-14 32 0 41-1t9-9q0-5-3-14-4-18-9-21l-2-1h-7q-5 0-52 1T228 2Q99 2 64 0H49q-6 6-6 9t2 18q4 13 10 19h39q80 0 95 9 1 1 2 1 5 3 10 20t40 157q17 68 28 111 70 275 70 281 0 5-29 5h-31q-67 0-88-6-45-10-70-41T67 467q-7-22-10-26t-14-4h-3z"/><path id="b" stroke-width="1" d="M184 600q0 24 19 42t44 19q18 0 30-12t13-30q0-23-20-42t-44-20q-15 0-28 10t-14 33zM21 287q0 8 9 31t24 51 44 51 60 22q39 0 65-23t27-62q0-17-14-56t-40-105-42-113q-5-22-5-32 0-25 17-25 9 0 19 3t23 14 27 35 25 59q3 12 5 14t17 2q20 0 20-10 0-8-9-31t-25-51-45-50-62-22q-32 0-59 21T74 74q0 17 5 32t43 114q38 101 44 121t7 39q0 24-17 24h-2q-30 0-55-33t-38-84q-1-1-2-3t-1-3-2-2-3-1-4 0-8 0H27q-6 6-6 9z"/></defs><g fill="currentColor" stroke="currentColor" stroke-width="0" transform="scale(1 -1)"><use xlink:href="#a"/><use x="826" y="-213" transform="scale(.707)" xlink:href="#b"/></g></svg>