<svg xmlns="http://www.w3.org/2000/svg" xmlns:xlink="http://www.w3.org/1999/xlink" style="vertical-align:-.88ex" width="3.032ex" height="2.634ex" viewBox="0 -755.5 1305.5 1134.2"><defs><path id="a" stroke-width="1" d="M285 628q0 7-57 9-23 0-30 1t-7 9q0 2 2 14 6 20 10 21 2 1 11 1h5q41-2 136-2h63q29 0 45 1t20 0q17 0 17-8 0-5-3-14-1-2-1-6t-1-6-2-4-3-3-4-2-7-1-9-1-14 0q-40-1-51-3t-18-11l-81-318q1 0 184 144t188 148q14 14 14 23 0 15-25 17-16 0-16 11 0 2 3 14t5 15q3 5 17 5 4 0 35-1t80-1q23 0 48 1t30 1q20 0 20-10 0-22-8-30-3-5-19-5-75-5-136-51-16-10-70-52t-100-79l-47-37 9-22q9-22 28-67t35-85q75-177 80-183 2-2 5-4 14-10 51-11h21q6-8 6-9t-3-18q-4-13-10-19h-11q-40 3-95 3-122 0-137-3h-10q-6 6-6 9t2 18q4 13 6 16t11 3h3q50 0 50 25 0 4-27 70t-32 75l-58 138-68-53-68-53-23-93q-23-92-23-97 0-7 8-9t50-3h31q6-9 6-11 0-16-7-30-5-5-16-5-3 0-37 1T180 2H85Q52 2 49 1 31 1 31 11q0 2 3 14 4 16 8 18t23 3q27 0 60 3 14 3 19 12 3 4 72 278t69 289z"/><path id="b" stroke-width="1" d="M23 287q1 3 2 8t5 22 10 31 15 33 20 30 26 22 33 9q75 0 96-64l10 9q62 55 118 55 65 0 102-47t37-114q0-108-76-199T249-10q-22 0-39 6-11 5-23 15t-19 17l-7 8q-1-1-22-87t-21-87q0-6 8-7t37-3h25q6-7 6-9t-3-18q-3-12-6-15t-13-4h-11q-9 0-34 1t-62 1q-70 0-89-2h-8q-7 7-7 11 2 27 13 35h20q34 1 39 12 3 6 61 239t61 247q1 5 1 14 0 41-25 41-22 0-37-28t-23-61-12-36q-2-2-16-2H29q-6 6-6 9zm155-185q22-76 74-76 30 0 58 23t46 58q18 34 36 108t19 110v6q0 74-61 74-11 0-22-3t-22-9-20-13-17-15-15-15-11-14-8-10l-3-4q0-1-3-14t-11-44-14-52q-26-106-26-110z"/></defs><g fill="currentColor" stroke="currentColor" stroke-width="0" transform="scale(1 -1)"><use xlink:href="#a"/><use x="1201" y="-213" transform="scale(.707)" xlink:href="#b"/></g></svg>